<!-- Generator: Adobe Illustrator 19.0.0, SVG Export Plug-In  -->
<svg version="1.1"
	 xmlns="http://www.w3.org/2000/svg" xmlns:xlink="http://www.w3.org/1999/xlink" xmlns:a="http://ns.adobe.com/AdobeSVGViewerExtensions/3.0/"
	 x="0px" y="0px" width="612px" height="408px" viewBox="0 0 612 408" style="enable-background:new 0 0 612 408;"
	 xml:space="preserve">
<style type="text/css">
	.st0{fill:#FFFFFF;}
	.st1{fill:#ED1C24;}
</style>
<defs>
</defs>
<g>
	<rect class="st0" width="612" height="408"/>
	<g>
		<g>
			<g>
				<polygon points="468.261,408 479.627,375.888 434.635,402.558 				"/>
			</g>
		</g>
		<g>
			<g>
				<g>
					<g>
						<path d="M473.595,321.795c-0.957,1.037-4.61,4.744-8.116,8.238c0,0-15.547,15.49-29.493,23.756
							c-8.398,4.979-17.594,8.71-17.594,8.71c-4.587,1.861-12.127,4.74-16.757,6.398c-4.629,1.658-15.184,8.529-12.66,12.787
							l4.288,7.233c2.524,4.258,8.586,8.396,13.471,9.195l23.726,3.88c4.885,0.799,12.366-0.613,16.624-3.137l23.111-13.7
							c4.258-2.524,9.087-8.409,10.731-13.078l7.505-21.318c1.644-4.669,0.924-11.973-1.601-16.231l-5.228-8.819
							C479.077,321.449,474.552,320.758,473.595,321.795z"/>
					</g>
					<g>
						<path d="M473.531,321.67c-0.923,1.106-0.894,1.162,0.063,0.125c0.957-1.037,3.367-3.914,3.306-4.018
							C476.839,317.674,474.454,320.564,473.531,321.67z"/>
					</g>
					<g>
						<path d="M392.302,370.683c-4.86,0.939-8.63,2.056-8.377,2.483c0.253,0.426,4.367-0.289,9.143-1.59
							c0,0,3.937-1.021,8.566-2.679c4.629-1.658,4.533-1.866-0.214-0.462L392.302,370.683z"/>
					</g>
				</g>
			</g>
		</g>
		<g>
			<g>
				<path d="M384.384,373.941l10.064,16.822l93.005-55.184l-10.441-17.614C453.267,345.502,421.039,365.516,384.384,373.941z"/>
				<path d="M477.012,317.965l-1.873-3.159c-10.028,15.378-23.296,28.478-39.638,38.166c-16.709,9.904-35.003,15.281-53.738,16.549
					l2.621,4.42C421.039,365.516,453.267,345.502,477.012,317.965z"/>
			</g>
		</g>
		<g>
			<g>
				<polygon class="st1" points="467.62,0 433.872,5.332 478.669,32.329 				"/>
			</g>
		</g>
		<g>
			<g>
				<g>
					<g>
						<path class="st1" d="M434.921,54.492c9.953,5.998,20.022,14.867,20.022,14.867c3.715,3.272,9.103,8.202,11.974,10.956
							c2.871,2.754,12.041,7.011,14.596,2.771l4.645-7.708c2.555-4.24,3.342-11.543,1.749-16.23l-7.778-22.883
							c-1.593-4.687-6.365-10.612-10.605-13.167L446.514,9.232c-4.24-2.555-11.708-4.007-16.596-3.226L407.48,9.59
							c-4.888,0.781-10.978,4.888-13.533,9.128l-5.132,8.516c-2.555,4.24-2.334,8.295,0.49,9.012
							c2.824,0.717,13.951,4.278,18.622,5.915C407.928,42.161,423.537,47.631,434.921,54.492z"/>
					</g>
					<g>
						<path class="st1" d="M466.917,80.315c-2.871-2.754-2.943-2.572-0.161,0.404c2.783,2.976,9.544,11.016,9.745,10.682
							C476.703,91.067,469.788,83.069,466.917,80.315z"/>
					</g>
					<g>
						<path class="st1" d="M394.193,37.889c2.883,0.713,2.972,0.608,0.2-0.233s-10.334-2.529-10.469-2.304
							C383.787,35.577,391.31,37.175,394.193,37.889z"/>
					</g>
				</g>
			</g>
		</g>
		<g>
			<g>
				<path class="st1" d="M476.868,90.795l10.228-17.079l-92.546-55.997l-10.38,17.223C420.839,43.323,453.091,63.292,476.868,90.795
					z"/>
				<path class="st1" d="M434.427,55.312c16.636,10.026,30.019,23.621,39.976,39.574l2.465-4.091
					c-23.777-27.503-56.029-47.472-92.699-55.853l-2.175,3.61C400.318,40.052,418.156,45.506,434.427,55.312z"/>
			</g>
		</g>
		<g>
			<g>
				<polygon points="108.434,205.14 130.045,231.291 130.045,178.989 				"/>
			</g>
		</g>
		<g>
			<g>
				<g>
					<g>
						<path d="M170.899,205.018c0-8.874,0.804-17.548,2.323-25.954c1.444-9.864,4.308-20.047,4.308-20.047
							c1.34-4.765-1.613-8.664-6.563-8.664h-8.327c-4.95,0-11.585,3.118-14.745,6.928l-15.237,18.375
							c-3.16,3.81-5.745,10.978-5.745,15.928v26.866c0,4.95,2.585,12.118,5.745,15.928l14.32,17.27
							c3.16,3.81,9.795,6.928,14.745,6.928h9.243c4.95,0,7.867-3.888,6.483-8.641c0,0-1.737-5.963-3.144-13.542
							C172.081,226.316,170.899,215.814,170.899,205.018z"/>
					</g>
					<g>
						<path d="M178.602,158.85c1.634-4.673,2.61-8.496,2.168-8.496s-1.9,3.899-3.24,8.664c0,0-2.864,10.182-4.308,20.047
							C175.027,169.072,178.602,158.85,178.602,158.85z"/>
					</g>
					<g>
						<path d="M174.306,236.395c1.407,7.579,3.144,13.542,3.144,13.542c1.385,4.752,2.779,8.641,3.099,8.641
							c0.32,0-0.768-3.818-2.418-8.486C178.131,250.092,175.996,244.053,174.306,236.395z"/>
					</g>
				</g>
			</g>
		</g>
		<g>
			<g>
				<path d="M179.967,150.354l-19.518,0.047l-0.025,108.176h19.543c-5.572-17.032-8.597-35.218-8.597-54.112
					S174.395,167.386,179.967,150.354z"/>
				<path d="M171.84,205.018c0-19.423,4.656-37.902,13.035-54.664h-4.908c-5.573,17.032-8.597,35.217-8.597,54.111
					s3.025,37.08,8.597,54.112h4.367C176.298,242.109,171.84,224.016,171.84,205.018z"/>
			</g>
		</g>
		<g>
			<polygon points="268.425,196.433 233.186,196.433 233.186,172.271 214.773,172.271 214.773,236.66 233.186,236.66 
				233.186,209.929 268.425,209.929 268.425,236.66 286.739,236.66 286.739,172.271 268.425,172.271 			"/>
			<polygon points="331.486,172.271 313.072,172.271 313.072,236.66 369.256,236.66 369.256,223.12 331.486,223.12 			"/>
			<path d="M452.514,202.441c3.273-1.48,5.756-3.417,7.444-5.812c1.689-2.394,2.531-5.158,2.531-8.293
				c0-5.339-2.058-9.353-6.178-12.037c-4.118-2.685-10.3-4.027-18.537-4.027h-47.449v64.389h51.122
				c7.444,0,13.286-1.633,17.518-4.897c4.235-3.266,6.353-7.756,6.353-13.474c0-4.005-1.076-7.351-3.224-10.035
				C459.941,205.568,456.747,203.632,452.514,202.441z M408.737,184.766h21.739c4.601,0,7.884,0.523,9.852,1.567
				c1.966,1.045,2.952,2.758,2.952,5.138c0,2.409-0.908,4.107-2.731,5.093c-1.819,0.987-5.177,1.481-10.073,1.481h-21.739V184.766z
				 M443.331,222.25c-1.786,1.045-5.163,1.567-10.124,1.567h-24.469v-14.454h24.469c4.567,0,7.842,0.582,9.827,1.741
				c1.983,1.161,2.978,3.047,2.978,5.659C446.011,219.376,445.119,221.204,443.331,222.25z"/>
		</g>
		<rect x="384.505" y="371.369" transform="matrix(0.823 -0.568 0.568 0.823 -143.09 286.5133)" width="7.497" height="3.039"/>
		<rect x="430.012" y="400.24" transform="matrix(0.9883 0.1522 -0.1522 0.9883 66.1629 -61.4786)" width="9.246" height="2.34"/>
		
			<rect x="474.044" y="373.235" transform="matrix(0.3284 -0.9445 0.9445 0.3284 -32.5316 703.5895)" width="8.957" height="2.873"/>
		<rect x="472.63" y="318.773" transform="matrix(0.856 -0.517 0.517 0.856 -96.9144 291.6681)" width="5.002" height="2.075"/>
		
			<rect x="469.069" y="88.021" transform="matrix(0.8339 0.552 -0.552 0.8339 127.6361 -246.4239)" class="st1" width="8.238" height="1.603"/>
		
			<rect x="461.085" y="82.946" transform="matrix(0.6728 0.7398 -0.7398 0.6728 216.1461 -319.8788)" class="st1" width="17.301" height="2.988"/>
		
			<rect x="477.288" y="29.21" transform="matrix(0.9431 -0.3324 0.3324 0.9431 16.3545 160.7593)" class="st1" width="1.451" height="6.744"/>
		
			<rect x="432.98" y="2.742" transform="matrix(-0.1664 -0.9861 0.9861 -0.1664 499.8582 434.7882)" class="st1" width="1.45" height="6.744"/>
		
			<rect x="386.68" y="32.981" transform="matrix(0.5015 -0.8651 0.8651 0.5015 161.6572 353.2789)" class="st1" width="1.45" height="6.744"/>
		
			<rect x="387.85" y="34.547" transform="matrix(0.5016 -0.8651 0.8651 0.5016 162.6906 354.0102)" class="st1" width="1.45" height="2.533"/>
		<rect x="178.941" y="254.171" width="1.559" height="4.315"/>
		<rect x="177.545" y="251.597" width="1.559" height="4.315"/>
		<rect x="130.867" y="229.955" transform="matrix(0.7667 -0.642 0.642 0.7667 -118.2714 138.5674)" width="1.305" height="4.117"/>
		
			<rect x="130.201" y="176.876" transform="matrix(0.7864 0.6177 -0.6177 0.7864 138.4238 -42.4831)" width="0.892" height="4.116"/>
		<rect x="172.251" y="213.327" transform="matrix(0.9911 -0.1329 0.1329 0.9911 -28.52 24.9716)" width="1.16" height="25.671"/>
		<rect x="170.534" y="201.986" transform="matrix(0.9989 -0.0472 0.0472 0.9989 -9.8051 8.3066)" width="1.16" height="19.873"/>
		<rect x="170.728" y="183.305" transform="matrix(0.9987 0.0516 -0.0516 0.9987 10.3456 -8.5755)" width="1.161" height="25.671"/>
		<rect x="172.469" y="168.585" transform="matrix(0.9879 0.1549 -0.1549 0.9879 30.1993 -24.6216)" width="1.16" height="25.671"/>
		<rect x="179.191" y="150.518" transform="matrix(1 0.0044 -0.0044 1 0.6781 -0.7936)" width="1.161" height="4.806"/>
		<rect x="178.427" y="151.061" transform="matrix(0.9631 0.2691 -0.2691 0.9631 48.0463 -42.4837)" width="1.161" height="5.947"/>
		
			<rect x="450.557" y="70.072" transform="matrix(0.7458 0.6662 -0.6662 0.7458 162.8515 -285.8307)" class="st1" width="10.823" height="0.816"/>
		
			<rect x="442.87" y="63.908" transform="matrix(0.7838 0.6211 -0.6211 0.7838 136.8835 -264.5064)" class="st1" width="10.823" height="0.816"/>
		
			<rect x="437.323" y="59.848" transform="matrix(0.8037 0.5951 -0.5951 0.8037 122.7749 -251.627)" class="st1" width="10.823" height="0.816"/>
		
			<rect x="433.262" y="56.965" transform="matrix(0.8318 0.555 -0.555 0.8318 105.6222 -233.8363)" class="st1" width="10.823" height="0.816"/>
		
			<rect x="426.99" y="53.085" transform="matrix(0.847 0.5317 -0.5317 0.847 94.6191 -221.708)" class="st1" width="10.823" height="0.815"/>
		
			<rect x="422.784" y="50.892" transform="matrix(0.8781 0.4786 -0.4786 0.8781 76.7657 -198.6607)" class="st1" width="10.823" height="0.816"/>
		
			<rect x="414.917" y="46.995" transform="matrix(0.9089 0.417 -0.417 0.9089 58.0638 -170.9717)" class="st1" width="10.823" height="0.816"/>
		
			<rect x="405.961" y="43.296" transform="matrix(0.9306 0.3661 -0.3661 0.9306 44.5685 -147.5871)" class="st1" width="10.822" height="0.815"/>
		
			<rect x="457.618" y="332.243" transform="matrix(0.6857 0.7279 -0.7279 0.6857 389.0829 -227.3878)" width="0.462" height="9.218"/>
		
			<rect x="451.038" y="337.736" transform="matrix(0.6489 0.7609 -0.7609 0.6489 418.923 -223.1611)" width="0.462" height="9.219"/>
		<rect x="445.354" y="342.06" transform="matrix(0.604 0.797 -0.797 0.604 452.7243 -217.8438)" width="0.463" height="9.219"/>
		<rect x="440.106" y="345.703" transform="matrix(0.5577 0.83 -0.83 0.5577 485.5368 -210.5551)" width="0.462" height="9.219"/>
		
			<rect x="433.905" y="349.483" transform="matrix(0.5093 0.8606 -0.8606 0.5093 517.7279 -199.8647)" width="0.462" height="9.219"/>
		
			<rect x="427.57" y="352.937" transform="matrix(0.4726 0.8813 -0.8813 0.4726 540.6985 -188.4455)" width="0.462" height="9.218"/>
		
			<rect x="420.635" y="356.581" transform="matrix(0.4648 0.8854 -0.8854 0.4648 545.0463 -179.334)" width="0.463" height="9.219"/>
		<rect x="416.828" y="358.294" transform="matrix(0.356 0.9345 -0.9345 0.356 607.6909 -156.0351)" width="0.463" height="9.218"/>
		
			<rect x="409.241" y="360.796" transform="matrix(0.3562 0.9344 -0.9344 0.3562 605.0436 -147.3723)" width="0.463" height="9.218"/>
		
			<rect x="460.431" y="333.346" transform="matrix(0.6838 0.7297 -0.7297 0.6838 389.7261 -230.3836)" width="0.462" height="2.196"/>
	</g>
</g>
</svg>