<!-- Generator: Adobe Illustrator 19.0.0, SVG Export Plug-In  -->
<svg version="1.1"
	 xmlns="http://www.w3.org/2000/svg" xmlns:xlink="http://www.w3.org/1999/xlink" xmlns:a="http://ns.adobe.com/AdobeSVGViewerExtensions/3.0/"
	 x="0px" y="0px" width="460px" height="345px" viewBox="0 0 460 345" style="enable-background:new 0 0 460 345;"
	 xml:space="preserve">
<style type="text/css">
	.st0{fill:none;}
	.st1{fill:#FFFFFF;}
	.st2{opacity:0.69;fill:#F15A29;stroke:#000000;stroke-miterlimit:10;}
	.st3{fill:#F15A29;stroke:#000000;stroke-miterlimit:10;}
	.st4{fill:#A7A9AC;stroke:#000000;stroke-miterlimit:10;}
	.st5{fill:none;stroke:#000000;stroke-width:10;stroke-miterlimit:10;}
	.st6{fill:url(#New_Pattern_Swatch_3);}
	.st7{fill:none;stroke:#58595B;stroke-width:2;stroke-miterlimit:10;}
	.st8{fill:none;stroke:#000000;stroke-width:4;stroke-miterlimit:10;}
	.st9{fill:none;stroke:#000000;stroke-miterlimit:10;}
	.st10{stroke:#000000;stroke-miterlimit:10;}
	.st11{opacity:0.72;fill:#FFF200;}
	.st12{fill:none;stroke:#C2B59B;stroke-miterlimit:10;}
	.st13{fill:#C2B59B;}
	.st14{opacity:0.58;fill:#FFFFFF;}
</style>
<defs>
	
		<pattern  x="0" y="0" width="8.772" height="2.2" patternUnits="userSpaceOnUse" id="New_Pattern_Swatch_3" viewBox="0 -2.2 8.772 2.2" style="overflow:visible;">
		<g id="XMLID_128_">
			<polygon id="XMLID_161_" class="st0" points="0,0 8.772,0 8.772,-2.2 0,-2.2 			"/>
			<polygon id="XMLID_160_" points="0.548,-1.645 0,-1.645 0,-2.193 0.548,-2.193 			"/>
			<polygon id="XMLID_159_" points="1.645,-1.645 1.097,-1.645 1.097,-2.193 1.645,-2.193 			"/>
			<polygon id="XMLID_158_" points="2.741,-1.645 2.193,-1.645 2.193,-2.193 2.741,-2.193 			"/>
			<polygon id="XMLID_157_" points="3.838,-1.645 3.29,-1.645 3.29,-2.193 3.838,-2.193 			"/>
			<polygon id="XMLID_156_" points="4.934,-1.652 4.386,-1.652 4.386,-2.2 4.934,-2.2 			"/>
			<polygon id="XMLID_155_" points="6.031,-1.652 5.483,-1.652 5.483,-2.2 6.031,-2.2 			"/>
			<polygon id="XMLID_154_" points="7.128,-1.652 6.579,-1.652 6.579,-2.2 7.128,-2.2 			"/>
			<polygon id="XMLID_153_" points="8.224,-1.652 7.676,-1.652 7.676,-2.2 8.224,-2.2 			"/>
			<polygon id="XMLID_152_" points="1.097,-1.106 0.548,-1.106 0.548,-1.654 1.097,-1.654 			"/>
			<polygon id="XMLID_151_" points="2.193,-1.106 1.645,-1.106 1.645,-1.654 2.193,-1.654 			"/>
			<polygon id="XMLID_150_" points="3.29,-1.106 2.741,-1.106 2.741,-1.654 3.29,-1.654 			"/>
			<polygon id="XMLID_149_" points="4.386,-1.106 3.838,-1.106 3.838,-1.654 4.386,-1.654 			"/>
			<polygon id="XMLID_148_" points="5.483,-1.113 4.934,-1.113 4.934,-1.661 5.483,-1.661 			"/>
			<polygon id="XMLID_147_" points="6.579,-1.113 6.031,-1.113 6.031,-1.661 6.579,-1.661 			"/>
			<polygon id="XMLID_146_" points="7.676,-1.113 7.128,-1.113 7.128,-1.661 7.676,-1.661 			"/>
			<polygon id="XMLID_145_" points="8.772,-1.113 8.224,-1.113 8.224,-1.661 8.772,-1.661 			"/>
			<polygon id="XMLID_144_" points="0.548,-0.557 0,-0.557 0,-1.106 0.548,-1.106 			"/>
			<polygon id="XMLID_143_" points="1.645,-0.557 1.097,-0.557 1.097,-1.106 1.645,-1.106 			"/>
			<polygon id="XMLID_142_" points="2.741,-0.557 2.193,-0.557 2.193,-1.106 2.741,-1.106 			"/>
			<polygon id="XMLID_141_" points="3.838,-0.557 3.29,-0.557 3.29,-1.106 3.838,-1.106 			"/>
			<polygon id="XMLID_140_" points="4.934,-0.564 4.386,-0.564 4.386,-1.113 4.934,-1.113 			"/>
			<polygon id="XMLID_139_" points="6.031,-0.564 5.483,-0.564 5.483,-1.113 6.031,-1.113 			"/>
			<polygon id="XMLID_138_" points="7.128,-0.564 6.579,-0.564 6.579,-1.113 7.128,-1.113 			"/>
			<polygon id="XMLID_137_" points="8.224,-0.564 7.676,-0.564 7.676,-1.113 8.224,-1.113 			"/>
			<polygon id="XMLID_136_" points="1.097,0 0.548,0 0.548,-0.548 1.097,-0.548 			"/>
			<polygon id="XMLID_135_" points="2.193,0 1.645,0 1.645,-0.548 2.193,-0.548 			"/>
			<polygon id="XMLID_134_" points="3.29,0 2.741,0 2.741,-0.548 3.29,-0.548 			"/>
			<polygon id="XMLID_133_" points="4.386,0 3.838,0 3.838,-0.548 4.386,-0.548 			"/>
			<polygon id="XMLID_132_" points="5.483,-0.007 4.934,-0.007 4.934,-0.555 5.483,-0.555 			"/>
			<polygon id="XMLID_131_" points="6.579,-0.007 6.031,-0.007 6.031,-0.555 6.579,-0.555 			"/>
			<polygon id="XMLID_130_" points="7.676,-0.007 7.128,-0.007 7.128,-0.555 7.676,-0.555 			"/>
			<polygon id="XMLID_129_" points="8.772,-0.007 8.224,-0.007 8.224,-0.555 8.772,-0.555 			"/>
		</g>
	</pattern>
</defs>
<rect id="XMLID_305_" class="st1" width="460" height="345"/>
<rect id="XMLID_304_" x="35" y="154" class="st2" width="111.5" height="150"/>
<rect id="XMLID_303_" x="23" y="145" class="st3" width="138" height="9"/>
<path id="XMLID_302_" class="st4" d="M35,145.105c30.844-30.844,80.938-30.668,112,0.395"/>
<path id="XMLID_301_" class="st5" d="M88,122.5c0-15.2,12.3-27.5,27.5-27.5"/>
<line id="XMLID_300_" class="st5" x1="115.5" y1="95" x2="208" y2="95"/>
<polygon id="XMLID_299_" points="207.558,90.001 207.558,100.05 228.111,106.08 228.111,85.25 "/>
<rect id="XMLID_298_" x="228.111" y="85.25" width="108.222" height="20.833"/>
<rect id="XMLID_297_" x="336.25" y="78.75" class="st6" width="16.75" height="33.25"/>
<g id="XMLID_291_">
	<line id="XMLID_296_" class="st7" x1="267.667" y1="90" x2="267.667" y2="35"/>
	<line id="XMLID_295_" class="st8" x1="267.667" y1="36.5" x2="267.667" y2="26"/>
	<path id="XMLID_294_" class="st9" d="M267.925,50.056c-2.123-4.727-6.028-8.628-10.758-10.746c-2.453-1.098-5.24-1.728-7.838-1.04
		c-2.598,0.687-4.893,2.957-4.968,5.643c-0.066,2.359,1.515,4.477,3.384,5.918c0.286,0.221,0.592,0.436,0.946,0.506
		c0.941,0.188,1.763-0.702,2.108-1.598c1.487-3.86-2.034-7.927-5.818-9.599c-2.777-1.227-5.803-1.774-8.813-2.177
		c-3.525-0.472-7.177-0.75-10.581,0.279c-3.404,1.029-6.537,3.627-7.262,7.109c-0.725,3.481,1.732,7.569,5.282,7.779
		c1.446,0.086,3.003-0.536,3.702-1.805c0.338-0.614,0.455-1.327,0.467-2.028c0.087-5.406-5.464-9.038-10.523-10.945
		c-5.487-2.068-11.245-3.416-17.079-3.999"/>
	<rect id="XMLID_293_" x="173.167" y="10.817" class="st10" width="28" height="36.865"/>
	<rect id="XMLID_292_" x="175.917" y="12.819" class="st11" width="23" height="17.362"/>
</g>
<g id="XMLID_285_">
	<g id="XMLID_287_">
		<line id="XMLID_290_" class="st12" x1="354.5" y1="84" x2="394.274" y2="70.602"/>
		<g id="XMLID_288_">
			<path id="XMLID_289_" class="st13" d="M392.573,71.175l-3.227-2.715l0.091-0.117l6.313,0.336c2.084-0.227,4.167-0.454,6.251-0.68
				c-1.796,1.08-3.592,2.16-5.388,3.241l-4.823,4.087l-0.136-0.019L392.573,71.175z"/>
		</g>
	</g>
</g>
<g id="XMLID_279_">
	<g id="XMLID_281_">
		<line id="XMLID_284_" class="st12" x1="355.167" y1="94.833" x2="394.348" y2="94.971"/>
		<g id="XMLID_282_">
			<path id="XMLID_283_" class="st13" d="M392.553,94.965l-2.179-3.611l0.123-0.081l5.867,2.354
				c2.045,0.457,4.091,0.915,6.136,1.373c-2.048,0.443-4.097,0.886-6.145,1.329l-5.883,2.313l-0.123-0.062L392.553,94.965z"/>
		</g>
	</g>
</g>
<g id="XMLID_273_">
	<g id="XMLID_275_">
		<line id="XMLID_278_" class="st12" x1="355.5" y1="107.5" x2="390.672" y2="117.724"/>
		<g id="XMLID_276_">
			<path id="XMLID_277_" class="st13" d="M388.948,117.223l-1.099-4.072l0.141-0.044l4.99,3.881c1.84,1.004,3.68,2.007,5.519,3.011
				c-2.091-0.139-4.182-0.278-6.274-0.417l-6.293,0.601l-0.101-0.093L388.948,117.223z"/>
		</g>
	</g>
</g>
<rect id="XMLID_272_" x="48.333" y="154" class="st14" width="84" height="30.667"/>
<g id="XMLID_121_">
	<path id="XMLID_269_" d="M66.586,162.34c0.443-0.096,1.043-0.156,1.643-0.156c0.936,0,1.667,0.132,2.195,0.624
		c0.479,0.42,0.695,1.092,0.695,1.775c0,0.875-0.264,1.487-0.684,1.943c-0.503,0.528-1.319,0.768-1.967,0.768
		c-0.108,0-0.216,0-0.312,0v3.01h-1.571V162.34z M68.157,166.01c0.072,0.024,0.156,0.024,0.252,0.024
		c0.792,0,1.151-0.564,1.151-1.319c0-0.708-0.288-1.259-1.02-1.259c-0.144,0-0.288,0.024-0.384,0.06V166.01z"/>
	<path id="XMLID_266_" d="M72.07,162.34c0.492-0.096,1.115-0.156,1.715-0.156c0.864,0,1.631,0.12,2.159,0.6
		c0.492,0.444,0.636,0.983,0.636,1.679c0,0.864-0.42,1.643-1.247,2.027v0.024c0.551,0.216,0.827,0.732,0.983,1.595
		c0.156,0.899,0.372,1.895,0.516,2.195h-1.643c-0.096-0.228-0.276-1.043-0.396-1.931c-0.144-1.007-0.396-1.295-0.923-1.295h-0.228
		v3.226H72.07V162.34z M73.641,165.866h0.276c0.684,0,1.08-0.552,1.08-1.259c0-0.684-0.276-1.175-0.983-1.199
		c-0.132,0-0.288,0.012-0.372,0.048V165.866z"/>
	<path id="XMLID_263_" d="M82.483,166.118c0,3.046-1.08,4.281-2.615,4.281c-1.835,0-2.555-1.943-2.555-4.162
		c0-2.207,0.875-4.114,2.663-4.114C81.932,162.124,82.483,164.271,82.483,166.118z M78.945,166.262c0,1.835,0.348,2.771,0.983,2.771
		c0.66,0,0.911-1.199,0.911-2.842c0-1.415-0.216-2.699-0.923-2.699C79.293,163.491,78.945,164.523,78.945,166.262z"/>
	<path id="XMLID_261_" d="M84.273,163.671h-1.427v-1.451h4.438v1.451h-1.439v6.632h-1.571V163.671z"/>
	<path id="XMLID_258_" d="M92.731,166.118c0,3.046-1.08,4.281-2.615,4.281c-1.835,0-2.555-1.943-2.555-4.162
		c0-2.207,0.875-4.114,2.663-4.114C92.18,162.124,92.731,164.271,92.731,166.118z M89.193,166.262c0,1.835,0.348,2.771,0.983,2.771
		c0.66,0,0.911-1.199,0.911-2.842c0-1.415-0.216-2.699-0.923-2.699C89.541,163.491,89.193,164.523,89.193,166.262z"/>
	<path id="XMLID_256_" d="M94.521,163.671h-1.427v-1.451h4.438v1.451h-1.439v6.632h-1.571V163.671z"/>
	<path id="XMLID_127_" d="M99.669,170.304v-3.094l-1.775-4.989h1.679l0.552,1.931c0.144,0.516,0.3,1.116,0.42,1.715h0.024
		c0.096-0.588,0.228-1.175,0.372-1.751l0.48-1.895h1.631l-1.811,4.929v3.154H99.669z"/>
	<path id="XMLID_124_" d="M103.594,162.34c0.443-0.096,1.043-0.156,1.643-0.156c0.936,0,1.667,0.132,2.195,0.624
		c0.479,0.42,0.695,1.092,0.695,1.775c0,0.875-0.264,1.487-0.684,1.943c-0.503,0.528-1.319,0.768-1.967,0.768
		c-0.108,0-0.216,0-0.312,0v3.01h-1.571V162.34z M105.165,166.01c0.072,0.024,0.156,0.024,0.252,0.024
		c0.792,0,1.151-0.564,1.151-1.319c0-0.708-0.288-1.259-1.02-1.259c-0.144,0-0.288,0.024-0.384,0.06V166.01z"/>
	<path id="XMLID_122_" d="M112.496,166.754h-1.847v2.183h2.087v1.367h-3.658v-8.083h3.514v1.367h-1.943v1.859h1.847V166.754z"/>
</g>
<g id="XMLID_97_">
	<path id="XMLID_118_" d="M160.002,57.123l-0.36,1.847h-1.523l1.751-8.083h1.883l1.571,8.083h-1.523l-0.348-1.847H160.002z
		 M161.309,55.9l-0.264-1.691c-0.084-0.492-0.192-1.295-0.264-1.835h-0.036c-0.084,0.54-0.204,1.379-0.288,1.847l-0.3,1.679H161.309
		z"/>
	<path id="XMLID_116_" d="M164.215,58.97v-8.083h1.439l1.248,3.166c0.24,0.624,0.635,1.667,0.863,2.363h0.024
		c-0.048-0.852-0.156-2.255-0.156-3.742v-1.787h1.379v8.083h-1.439l-1.235-3.07c-0.264-0.684-0.636-1.703-0.815-2.435h-0.024
		c0.036,0.815,0.096,2.063,0.096,3.682v1.823H164.215z"/>
	<path id="XMLID_114_" d="M173.825,55.42h-1.847v2.183h2.087v1.367h-3.658v-8.083h3.514v1.367h-1.943v1.859h1.847V55.42z"/>
	<path id="XMLID_112_" d="M180.076,56.14c-0.036-0.768-0.096-1.811-0.072-2.674h-0.036c-0.144,0.863-0.36,1.859-0.516,2.482
		l-0.696,2.891h-1.115l-0.671-2.843c-0.156-0.647-0.372-1.655-0.492-2.53h-0.036c-0.024,0.875-0.072,1.895-0.12,2.698l-0.132,2.807
		h-1.355l0.587-8.083h1.655l0.647,2.926c0.228,1.02,0.432,1.919,0.576,2.831h0.024c0.12-0.899,0.3-1.811,0.516-2.831l0.636-2.926
		h1.655l0.492,8.083h-1.403L180.076,56.14z"/>
	<path id="XMLID_109_" d="M187.552,54.785c0,3.046-1.08,4.281-2.615,4.281c-1.835,0-2.555-1.943-2.555-4.162
		c0-2.207,0.875-4.114,2.663-4.114C187,50.791,187.552,52.938,187.552,54.785z M184.014,54.928c0,1.835,0.348,2.771,0.983,2.771
		c0.66,0,0.911-1.199,0.911-2.842c0-1.415-0.216-2.699-0.923-2.699C184.362,52.158,184.014,53.189,184.014,54.928z"/>
	<path id="XMLID_107_" d="M193.492,56.14c-0.036-0.768-0.096-1.811-0.072-2.674h-0.036c-0.144,0.863-0.36,1.859-0.516,2.482
		l-0.696,2.891h-1.115l-0.671-2.843c-0.156-0.647-0.372-1.655-0.492-2.53h-0.036c-0.024,0.875-0.072,1.895-0.12,2.698l-0.132,2.807
		h-1.355l0.587-8.083h1.655l0.647,2.926c0.228,1.02,0.432,1.919,0.576,2.831h0.024c0.12-0.899,0.3-1.811,0.516-2.831l0.636-2.926
		h1.655l0.492,8.083h-1.403L193.492,56.14z"/>
	<path id="XMLID_105_" d="M199.613,55.42h-1.847v2.183h2.087v1.367h-3.658v-8.083h3.514v1.367h-1.943v1.859h1.847V55.42z"/>
	<path id="XMLID_103_" d="M201.798,52.338h-1.427v-1.451h4.438v1.451h-1.439v6.632h-1.571V52.338z"/>
	<path id="XMLID_101_" d="M209.057,55.42h-1.847v2.183h2.087v1.367h-3.658v-8.083h3.514v1.367h-1.943v1.859h1.847V55.42z"/>
	<path id="XMLID_98_" d="M210.367,51.006c0.492-0.096,1.115-0.156,1.715-0.156c0.864,0,1.631,0.12,2.159,0.6
		c0.492,0.444,0.636,0.983,0.636,1.679c0,0.864-0.42,1.643-1.247,2.027v0.024c0.551,0.216,0.827,0.732,0.983,1.595
		c0.156,0.899,0.372,1.895,0.516,2.195h-1.643c-0.096-0.228-0.276-1.043-0.396-1.931c-0.144-1.007-0.396-1.295-0.923-1.295h-0.228
		v3.226h-1.571V51.006z M211.938,54.533h0.276c0.684,0,1.08-0.552,1.08-1.259c0-0.684-0.276-1.175-0.983-1.199
		c-0.132,0-0.288,0.012-0.372,0.048V54.533z"/>
</g>
<g id="XMLID_80_">
	<path id="XMLID_95_" d="M331.697,121.554h3.514v1.367h-1.942v2.075h1.823v1.308h-1.823v3.334h-1.571V121.554z"/>
	<path id="XMLID_92_" d="M337.973,121.554v8.083h-1.571v-8.083H337.973z"/>
	<path id="XMLID_88_" d="M339.378,121.554h1.57v6.752h2.075v1.331h-3.646V121.554z"/>
	<path id="XMLID_86_" d="M344.153,123.005h-1.427v-1.451h4.438v1.451h-1.439v6.632h-1.571V123.005z"/>
	<path id="XMLID_84_" d="M351.412,126.087h-1.848v2.183h2.087v1.367h-3.657v-8.083h3.514v1.367h-1.943v1.859h1.848V126.087z"/>
	<path id="XMLID_81_" d="M352.722,121.673c0.491-0.096,1.115-0.156,1.715-0.156c0.863,0,1.631,0.12,2.158,0.6
		c0.492,0.444,0.636,0.983,0.636,1.679c0,0.864-0.42,1.643-1.247,2.027v0.024c0.552,0.216,0.827,0.732,0.983,1.595
		c0.156,0.899,0.372,1.895,0.516,2.195h-1.643c-0.097-0.228-0.276-1.043-0.396-1.931c-0.144-1.007-0.396-1.295-0.923-1.295h-0.229
		v3.226h-1.57V121.673z M354.292,125.2h0.276c0.684,0,1.079-0.552,1.079-1.259c0-0.684-0.275-1.175-0.983-1.199
		c-0.132,0-0.288,0.012-0.372,0.048V125.2z"/>
</g>
<g id="XMLID_64_">
	<path id="XMLID_78_" d="M413.011,95.087h-1.848v2.183h2.087v1.367h-3.657v-8.083h3.514v1.367h-1.943v1.859h1.848V95.087z"/>
	<path id="XMLID_76_" d="M416.935,98.637l-0.516-1.487c-0.155-0.468-0.287-0.923-0.432-1.439h-0.023
		c-0.132,0.516-0.265,1.007-0.384,1.463l-0.433,1.463h-1.559L415.1,94.5l-1.451-3.946h1.644l0.468,1.499
		c0.132,0.42,0.239,0.84,0.372,1.295h0.023c0.132-0.492,0.228-0.875,0.336-1.319l0.408-1.475h1.57l-1.511,4.018l1.595,4.066H416.935
		z"/>
	<path id="XMLID_74_" d="M420.775,90.554v3.238h1.643v-3.238h1.571v8.083h-1.571v-3.382h-1.643v3.382h-1.571v-8.083H420.775z"/>
	<path id="XMLID_71_" d="M426.668,96.79l-0.36,1.847h-1.522l1.751-8.083h1.883l1.571,8.083h-1.523l-0.348-1.847H426.668z
		 M427.975,95.567l-0.264-1.691c-0.084-0.492-0.191-1.295-0.264-1.835h-0.036c-0.084,0.54-0.204,1.379-0.288,1.847l-0.3,1.679
		H427.975z"/>
	<path id="XMLID_69_" d="M432.212,90.554v5.253c0,1.188,0.359,1.547,0.768,1.547c0.455,0,0.779-0.324,0.779-1.547v-5.253h1.571
		v4.977c0,2.075-0.779,3.202-2.339,3.202c-1.691,0-2.351-1.163-2.351-3.19v-4.989H432.212z"/>
	<path id="XMLID_67_" d="M436.509,97.03c0.323,0.18,0.875,0.312,1.331,0.312c0.744,0,1.104-0.384,1.104-0.912
		c0-0.587-0.359-0.875-1.044-1.319c-1.103-0.672-1.522-1.523-1.522-2.255c0-1.295,0.863-2.375,2.555-2.375
		c0.527,0,1.031,0.144,1.271,0.288l-0.251,1.355c-0.229-0.144-0.576-0.276-1.032-0.276c-0.671,0-0.995,0.408-0.995,0.839
		c0,0.48,0.24,0.731,1.115,1.259c1.067,0.647,1.464,1.463,1.464,2.315c0,1.475-1.092,2.446-2.675,2.446
		c-0.647,0-1.283-0.167-1.547-0.324L436.509,97.03z"/>
	<path id="XMLID_65_" d="M442.292,92.005h-1.427v-1.451h4.438v1.451h-1.439v6.632h-1.571V92.005z"/>
</g>
<g id="XMLID_35_">
	<path id="XMLID_62_" d="M201.147,322.224h-2.618v-2.662h8.141v2.662h-2.641v12.168h-2.882V322.224z"/>
	<path id="XMLID_60_" d="M214.458,327.879h-3.388v4.004h3.829v2.509h-6.711v-14.83h6.447v2.508h-3.564v3.411h3.388V327.879z"/>
	<path id="XMLID_45_" d="M216.525,331.443c0.594,0.33,1.606,0.572,2.442,0.572c1.364,0,2.024-0.704,2.024-1.673
		c0-1.078-0.66-1.606-1.914-2.42c-2.024-1.232-2.794-2.795-2.794-4.137c0-2.377,1.584-4.356,4.687-4.356
		c0.968,0,1.893,0.264,2.333,0.527l-0.462,2.486c-0.418-0.264-1.056-0.506-1.893-0.506c-1.232,0-1.826,0.748-1.826,1.54
		c0,0.881,0.44,1.343,2.046,2.311c1.958,1.188,2.685,2.685,2.685,4.247c0,2.706-2.002,4.488-4.907,4.488
		c-1.188,0-2.354-0.308-2.838-0.594L216.525,331.443z"/>
	<path id="XMLID_43_" d="M227.129,322.224h-2.618v-2.662h8.142v2.662h-2.641v12.168h-2.882V322.224z"/>
	<path id="XMLID_40_" d="M237.667,319.781c0.902-0.176,2.046-0.286,3.146-0.286c1.584,0,2.992,0.22,3.961,1.101
		c0.901,0.813,1.166,1.804,1.166,3.08c0,1.584-0.771,3.015-2.288,3.719v0.044c1.012,0.396,1.518,1.342,1.804,2.927
		c0.286,1.65,0.683,3.477,0.946,4.026h-3.015c-0.176-0.418-0.506-1.914-0.726-3.543c-0.265-1.848-0.727-2.376-1.694-2.376h-0.418
		v5.919h-2.883V319.781z M240.55,326.25h0.506c1.254,0,1.98-1.012,1.98-2.311c0-1.254-0.507-2.156-1.805-2.2
		c-0.242,0-0.528,0.022-0.682,0.088V326.25z"/>
	<path id="XMLID_38_" d="M250.89,319.562v14.83h-2.883v-14.83H250.89z"/>
	<path id="XMLID_36_" d="M261.691,333.995c-0.638,0.265-2.002,0.528-3.08,0.528c-1.694,0-2.971-0.483-3.961-1.474
		c-1.276-1.232-1.958-3.434-1.914-5.985c0.066-5.391,3.146-7.635,6.293-7.635c1.122,0,1.958,0.22,2.42,0.439l-0.506,2.486
		c-0.418-0.22-0.968-0.33-1.694-0.33c-1.958,0-3.521,1.343-3.521,5.215c0,3.564,1.387,4.841,2.729,4.841
		c0.265,0,0.462-0.021,0.572-0.065v-3.587h-1.32v-2.354h3.982V333.995z"/>
</g>
</svg>